<svg xmlns="http://www.w3.org/2000/svg" width="19.619" height="25.11" viewBox="0 0 19.619 25.11">
  <g id="Group_29" data-name="Group 29" transform="translate(-20.368 -521.661)">
    <path id="Path_551" data-name="Path 551" d="M29.694,546.771c-.091-.1-.224-.076-.336-.112a3.082,3.082,0,0,1-2.235-2.5c-.034-.174.029-.2.186-.2q2.889.008,5.778,0c.178,0,.2.058.181.209a3.091,3.091,0,0,1-2.582,2.552c-.039.005-.084-.007-.1.048Z" fill="#fff"/>
    <path id="Path_552" data-name="Path 552" d="M30.216,537.171q-3.911,0-7.822,0c-.2,0-.261-.039-.259-.249.012-1.381-.037-2.764.017-4.143a7.792,7.792,0,0,1,4.394-7.006,8.046,8.046,0,0,1,11.7,7.259q-.009,1.949,0,3.9c0,.189-.043.243-.241.242Q34.115,537.165,30.216,537.171Z" fill="#fff"/>
    <path id="Path_553" data-name="Path 553" d="M30.19,543q-3.972,0-7.946,0a1.7,1.7,0,0,1-1.8-1.453,6.62,6.62,0,0,1,.009-2,1.691,1.691,0,0,1,1.7-1.4c1.456-.01,2.913,0,4.37,0H38.086a1.753,1.753,0,0,1,1.9,1.881c0,.392,0,.784,0,1.176a2.11,2.11,0,0,1-.034.414A1.75,1.75,0,0,1,38.136,543Q34.164,543,30.19,543Z" fill="#fff"/>
    <path id="Path_554" data-name="Path 554" d="M31.774,523.492c-.023.209.07.447-.043.53s-.328-.021-.5-.041a8.682,8.682,0,0,0-2.4.05c-.187.031-.208-.024-.2-.177a5.494,5.494,0,0,1,.042-1,1.562,1.562,0,0,1,1.608-1.189,1.543,1.543,0,0,1,1.459,1.33C31.765,523.171,31.765,523.351,31.774,523.492Z" fill="#fff"/>
  </g>
</svg>
