<svg xmlns="http://www.w3.org/2000/svg" width="26.116" height="26.115" viewBox="0 0 26.116 26.115">
  <g id="Group_31" data-name="Group 31" transform="translate(-17.12 -407.61)">
    <path id="Path_559" data-name="Path 559" d="M41.067,412.969q-1.551-1.58-3.1-3.157c-.072-.073-.059-.113.007-.178q.715-.705,1.427-1.415a2.9,2.9,0,0,1,1.191-.609H41.4c.015.077.087.077.138.09a2.286,2.286,0,0,1,1.071,3.775,19.225,19.225,0,0,1-1.514,1.494h-.032Z" fill="#fff"/>
    <path id="Path_560" data-name="Path 560" d="M20.1,427.525c.062-.066.112-.122.166-.175q1.929-1.932,3.859-3.862,4.716-4.721,9.429-9.442c.15-.151.225-.176.391-.01q1.45,1.453,2.931,2.878c.139.135.13.2,0,.327q-6.687,6.683-13.363,13.375c-.131.132-.195.145-.334,0-.973-.987-1.957-1.963-2.937-2.944C20.194,427.63,20.151,427.581,20.1,427.525Z" fill="#fff"/>
    <path id="Path_561" data-name="Path 561" d="M41.067,412.969H41.1q.189,1.2.38,2.409.109.68.226,1.357a.279.279,0,0,1-.088.271q-2.709,2.7-5.41,5.415c-.1.1-.159.1-.259,0-.257-.272-.515-.544-.794-.792-.164-.147-.114-.224.014-.352q1.424-1.41,2.834-2.831.975-.974,1.949-1.948a.293.293,0,0,0,.117-.284c-.1-.568-.194-1.138-.291-1.708-.007-.046.008-.106-.057-.127,0-.01,0-.02,0-.029.481-.4.892-.871,1.337-1.308C41.07,413.027,41.064,412.993,41.067,412.969Z" fill="#fff"/>
    <path id="Path_562" data-name="Path 562" d="M17.12,433.725l2.038-4.97c.212.214.4.4.59.6.726.727,1.45,1.456,2.181,2.178.141.138.178.193-.048.283-1.493.6-2.98,1.2-4.47,1.81C17.335,433.652,17.257,433.676,17.12,433.725Z" fill="#fff"/>
    <path id="Path_563" data-name="Path 563" d="M39.719,414.349c0,.009,0,.019,0,.029-.414.416-.831.829-1.237,1.252-.1.107-.152.07-.234-.013q-1.5-1.509-3.015-3.011c-.088-.088-.1-.138-.006-.234.4-.385.784-.779,1.174-1.171.069-.07.115-.123.218-.018q1.538,1.564,3.086,3.12C39.716,414.313,39.715,414.333,39.719,414.349Z" fill="#fff"/>
  </g>
</svg>
