<svg xmlns="http://www.w3.org/2000/svg" width="24.631" height="28.255" viewBox="0 0 24.631 28.255">
  <g id="Group_38" data-name="Group 38" transform="translate(-17.862 -743.221)">
    <path id="Path_591" data-name="Path 591" d="M42.491,761.171c0,2.56,0,5.12,0,7.68a2.51,2.51,0,0,1-2.191,2.6,2.922,2.922,0,0,1-.469.024q-7.695,0-15.389,0a2.54,2.54,0,0,1-2.667-2.656c0-.451-.013-.9,0-1.353.009-.222-.069-.254-.265-.229a6.59,6.59,0,0,1-1.548.132,2.35,2.35,0,0,1-2.092-2.216c-.018-.529-.008-1.059-.008-1.589q0-6.885,0-13.771a2.345,2.345,0,0,1,1.887-2.425,4.561,4.561,0,0,1,1.661.119c.36.056.352.065.36-.3a15.772,15.772,0,0,1,.037-1.793,2.49,2.49,0,0,1,2.41-2.164c2.452-.016,4.9-.011,7.356,0a2.517,2.517,0,0,1,1.7.7q3.129,2.814,6.258,5.624c.664.6,1.323,1.2,1.992,1.789a2.718,2.718,0,0,1,.965,2.149C42.486,756.051,42.491,758.611,42.491,761.171Zm-18.835-3.832q0,5.707,0,11.416c0,.6.23.837.83.837h15.3c.616,0,.831-.214.831-.832q0-7.473.007-14.947c0-.262-.086-.292-.313-.292-2.286.009-4.571.006-6.856.005a2.083,2.083,0,0,1-2.266-2.268c0-1.962,0-3.923,0-5.885,0-.221-.052-.272-.271-.271-2.129.009-4.257.006-6.385.006-.67,0-.882.21-.882.873Q23.656,751.66,23.656,757.339Zm-1.883.073v-3.029c0-1.539-.008-3.078.007-4.617,0-.245-.081-.317-.3-.347-.329-.046-.656-.112-.983-.173-.549-.1-.752.06-.752.615q0,1.794,0,3.587v11.381c0,.549.167.7.716.639.34-.038.678-.1,1.02-.129.227-.019.3-.1.294-.34C21.768,762.47,21.773,759.941,21.773,757.412ZM33.12,746.269c-.027.046-.044.061-.044.076,0,1.667,0,3.334-.005,5,0,.233.1.3.325.3,1.823-.006,3.647,0,5.47-.005.057,0,.137.045.174-.052Z" fill="#fff"/>
    <path id="Path_592" data-name="Path 592" d="M32.474,766.767H28.8a.946.946,0,1,1,0-1.883h7.32a.947.947,0,1,1,0,1.883Z" fill="#fff"/>
    <path id="Path_593" data-name="Path 593" d="M29.634,762.707c-.313,0-.626.006-.939,0a.939.939,0,0,1,0-1.879q.939-.014,1.879,0a.94.94,0,1,1,0,1.88C30.261,762.714,29.948,762.707,29.634,762.707Z" fill="#fff"/>
  </g>
</svg>
