<svg xmlns="http://www.w3.org/2000/svg" width="26.456" height="27.205" viewBox="0 0 26.456 27.205">
  <defs>
    <style>
      .cls-1 {
        fill: #fff;
      }
    </style>
  </defs>
  <g id="Group_33" data-name="Group 33" transform="translate(-16.95 -69.17)">
    <path id="Path_566" data-name="Path 566" class="cls-1" d="M40.381,96.375H19.872c-.011-.041-.043-.046-.079-.054a3.419,3.419,0,0,1-2.843-3.513q0-11.331,0-22.661c0-.678.294-.977.963-.977H37.2c.656,0,.954.3.954.957,0,1.789.005,3.578-.006,5.367,0,.228.063.271.278.269,1.319-.011,2.638,0,3.958,0,.745,0,1.023.278,1.023,1.024V92.749c0,.115,0,.23-.006.345a3.447,3.447,0,0,1-2.27,3.079C40.884,96.263,40.622,96.274,40.381,96.375Zm-3.3-1.6a3.968,3.968,0,0,1-.538-2.237q.01-10.731.009-21.462c0-.23-.041-.309-.295-.308q-8.712.012-17.424,0c-.227,0-.293.043-.293.285q.01,10.851,0,21.7a2.414,2.414,0,0,0,.074.657,1.825,1.825,0,0,0,1.887,1.362q8.166,0,16.334,0Zm1.067-9.517v2.629c0,1.655,0,3.311,0,4.966a1.816,1.816,0,0,0,2.131,1.883,1.839,1.839,0,0,0,1.515-1.92q0-7.61.006-15.218c0-.211-.069-.242-.257-.241-1.044.009-2.089.012-3.133,0-.23,0-.269.068-.269.281C38.156,80.174,38.153,82.714,38.153,85.255Z"/>
    <path id="Path_567" data-name="Path 567" class="cls-1" d="M27.55,72.921h5.844c.734,0,1.016.279,1.016,1.006q0,2.629,0,5.26c0,.73-.286,1.019-1.01,1.019H21.712c-.728,0-1.01-.283-1.011-1.012V73.907c0-.7.282-.985.978-.985Zm-.028,5.669c1.682,0,3.364,0,5.046,0,.185,0,.234-.045.233-.232-.009-1.2-.007-2.408,0-3.612,0-.161-.026-.225-.211-.225q-5.033.009-10.065,0c-.172,0-.22.042-.219.217.008,1.2.011,2.408,0,3.611,0,.211.066.241.253.24C24.211,78.587,25.867,78.59,27.522,78.59Z"/>
    <path id="Path_568" data-name="Path 568" class="cls-1" d="M27.547,84.8q2.974,0,5.949,0a.808.808,0,0,1,.891.952.777.777,0,0,1-.629.636,1.352,1.352,0,0,1-.238.023q-5.961,0-11.924,0a.8.8,0,0,1-.888-.752.777.777,0,0,1,.654-.836A1.958,1.958,0,0,1,21.7,84.8Q24.626,84.8,27.547,84.8Z"/>
    <path id="Path_569" data-name="Path 569" class="cls-1" d="M27.544,92.623q-2.961,0-5.922,0c-.548,0-.89-.286-.914-.749a.778.778,0,0,1,.629-.83,1.222,1.222,0,0,1,.263-.026q5.949,0,11.9,0a.808.808,0,0,1,.893.69.777.777,0,0,1-.712.906c-.167.015-.336.01-.5.011Z"/>
    <path id="Path_570" data-name="Path 570" class="cls-1" d="M27.578,87.918q2.975,0,5.948,0a.8.8,0,0,1,.175,1.594,1.423,1.423,0,0,1-.185.007q-5.962,0-11.924,0a.8.8,0,0,1-.885-.835.779.779,0,0,1,.737-.761c.211-.012.424-.006.637-.006Z"/>
    <path id="Path_571" data-name="Path 571" class="cls-1" d="M27.578,81.705q2.975,0,5.949,0A.8.8,0,0,1,33.7,83.3a1.871,1.871,0,0,1-.212.006H21.619a.8.8,0,0,1-.911-.753.783.783,0,0,1,.815-.845c.788-.007,1.576,0,2.364,0Z"/>
  </g>
</svg>
