<svg xmlns="http://www.w3.org/2000/svg" width="26.029" height="26.016" viewBox="0 0 26.029 26.016">
  <g id="Group_34" data-name="Group 34" transform="translate(-17.163 -633.746)">
    <path id="Path_572" data-name="Path 572" d="M29.166,659.762a3.735,3.735,0,0,0-.86-.137A12.9,12.9,0,0,1,17.458,649.4a12.594,12.594,0,0,1,3.252-11.549,12.325,12.325,0,0,1,7.408-3.939A13.034,13.034,0,0,1,43.077,645a4.174,4.174,0,0,0,.115.787v1.982c-.072.033-.047.1-.052.155a11.874,11.874,0,0,1-.766,3.351,12.882,12.882,0,0,1-10.34,8.351,5.117,5.117,0,0,0-.886.137Zm1-.866A12.142,12.142,0,1,0,18.043,646.74,12.138,12.138,0,0,0,30.17,658.9Z" fill="#fff"/>
    <path id="Path_573" data-name="Path 573" d="M30.17,658.9a12.142,12.142,0,1,1,12.152-12.13A12.14,12.14,0,0,1,30.17,658.9Zm.019-23.423a11.276,11.276,0,1,0,11.267,11.278A11.276,11.276,0,0,0,30.189,635.473Z" fill="#fff"/>
    <path id="Path_574" data-name="Path 574" d="M30.189,635.473a11.277,11.277,0,1,1-11.281,11.265A11.272,11.272,0,0,1,30.189,635.473Zm-.007,21.69a10.411,10.411,0,1,0-10.41-10.41A10.452,10.452,0,0,0,30.182,657.163Z" fill="#fff"/>
    <path id="Path_575" data-name="Path 575" d="M30.179,648.483a1.719,1.719,0,0,1-1.581-2.394.294.294,0,0,0-.079-.39c-.533-.52-1.057-1.05-1.583-1.578a1.2,1.2,0,0,1-.178-.212.424.424,0,0,1,.587-.578,1.206,1.206,0,0,1,.212.179c.528.526,1.057,1.05,1.578,1.582a.275.275,0,0,0,.368.082,1.545,1.545,0,0,1,1.35,0,.289.289,0,0,0,.388-.088q1.691-1.7,3.392-3.395a1.4,1.4,0,0,1,.252-.211.423.423,0,0,1,.567.588,1.484,1.484,0,0,1-.215.248q-1.686,1.691-3.378,3.374a.311.311,0,0,0-.089.41A1.718,1.718,0,0,1,30.179,648.483Zm0-2.594a.863.863,0,1,0,.862.877A.87.87,0,0,0,30.184,645.889Z" fill="#fff"/>
    <path id="Path_576" data-name="Path 576" d="M30.623,638.515c0,.263.007.525,0,.787-.011.323-.184.511-.448.505s-.422-.188-.427-.5q-.015-.8,0-1.6a.441.441,0,1,1,.875-.006C30.631,637.974,30.622,638.245,30.623,638.515Z" fill="#fff"/>
    <path id="Path_577" data-name="Path 577" d="M21.939,646.312c.263,0,.525-.007.787,0,.324.01.514.179.512.441s-.192.43-.518.435q-.786.012-1.573,0a.454.454,0,0,1-.5-.428c-.007-.257.193-.438.51-.448C21.415,646.3,21.677,646.312,21.939,646.312Z" fill="#fff"/>
    <path id="Path_578" data-name="Path 578" d="M38.424,647.192c-.262,0-.524.007-.786,0-.325-.01-.513-.18-.51-.443s.192-.429.519-.433q.786-.012,1.573,0a.454.454,0,0,1,.5.43c.006.257-.193.436-.511.446C38.949,647.2,38.687,647.192,38.424,647.192Z" fill="#fff"/>
    <path id="Path_579" data-name="Path 579" d="M30.623,654.986c0,.263.006.525,0,.787-.009.32-.182.519-.439.518s-.433-.2-.437-.52c-.008-.516-.007-1.032,0-1.548.005-.33.166-.519.427-.526s.442.187.451.528C30.628,654.479,30.623,654.732,30.623,654.986Z" fill="#fff"/>
  </g>
</svg>
