<svg xmlns="http://www.w3.org/2000/svg" width="26.146" height="21.46" viewBox="0 0 26.146 21.46">
  <g id="Group_30" data-name="Group 30" transform="translate(-17.105 -298.228)">
    <path id="Path_555" data-name="Path 555" d="M43.251,319.688a.629.629,0,0,0-.3-.024H32.685c.016-.1.1-.092.155-.111a27.357,27.357,0,0,1,6.923-1.607c.525-.05,1.05-.1,1.575-.145a.491.491,0,0,0,.513-.515c0-.076,0-.153,0-.23V301.334c0-.341,0-.342.353-.341s.7,0,1.046.007Z" fill="#fff"/>
    <path id="Path_556" data-name="Path 556" d="M29.716,319.423c-.555-.225-1.069-.441-1.59-.642a28.057,28.057,0,0,0-6.445-1.652c-.666-.088-1.333-.165-2-.2-.191-.011-.232-.079-.232-.262q.008-9.1,0-18.2c0-.334.2-.219.343-.208a28.13,28.13,0,0,1,9.014,2.195c.234.1.465.206.7.291a.276.276,0,0,1,.217.31q-.009,9.087-.005,18.175Z" fill="#fff"/>
    <path id="Path_557" data-name="Path 557" d="M30.645,319.418V319.1q0-8.973-.006-17.945a.4.4,0,0,1,.287-.445,30.968,30.968,0,0,1,6.165-1.981,34.086,34.086,0,0,1,3.586-.485c.186-.017.24.02.24.22q-.009,9.1,0,18.2c0,.214-.082.249-.26.261a28.628,28.628,0,0,0-6.938,1.329c-.945.3-1.867.668-2.782,1.054C30.854,319.343,30.767,319.372,30.645,319.418Z" fill="#fff"/>
    <path id="Path_558" data-name="Path 558" d="M27.651,319.659h-.227q-5.028,0-10.055.005c-.207,0-.265-.04-.264-.258q.01-9.086,0-18.17c0-.2.051-.258.25-.247.33.017.663.009.994,0,.118,0,.177.026.16.154a1.51,1.51,0,0,0,0,.178v15.8c0,.514.121.647.631.686a30.634,30.634,0,0,1,6.148,1.012A16.3,16.3,0,0,1,27.651,319.659Z" fill="#fff"/>
  </g>
</svg>
